<?xml version="1.0" encoding="UTF-8"?>
<svg version="1.1" xmlns="http://www.w3.org/2000/svg" width="1000" height="1000">
<path d="M0 0 C0 45.87 0 91.74 0 139 C-15.18 139 -30.36 139 -46 139 C-46 112.93 -46 86.86 -46 60 C-104.82423369 83.89734494 -157.87677326 114.8481844 -200 163 C-200.47356934 163.53415527 -200.94713867 164.06831055 -201.43505859 164.61865234 C-224.02733419 190.12702015 -241.63579883 218.69532385 -257 249 C-257.37511719 249.72880371 -257.75023437 250.45760742 -258.13671875 251.20849609 C-300.06895752 333.08480714 -302.89812127 434.47856299 -275.66699219 521.14575195 C-271.46954155 534.04918661 -266.44610463 546.5774314 -261 559 C-260.59168945 559.93247559 -260.18337891 560.86495117 -259.76269531 561.82568359 C-251.35360393 580.76852213 -240.99825359 599.09135003 -229 616 C-228.53271484 616.66660645 -228.06542969 617.33321289 -227.58398438 618.02001953 C-218.46931846 631.00245931 -208.70497528 643.02540061 -198.02734375 654.75390625 C-196.24969012 656.72336836 -194.52789863 658.72659962 -192.8125 660.75 C-189.38791203 664.67867452 -185.7381901 668.37078854 -182.0625 672.0625 C-181.48927002 672.64032227 -180.91604004 673.21814453 -180.32543945 673.81347656 C-129.66300536 724.29694205 -61.58210907 757.19137494 8.21948242 770.44091797 C10.71239714 770.94217134 13.1920877 771.48134641 15.67378235 772.03494263 C16.48400502 772.21552279 17.2942277 772.39610294 18.12900257 772.58215523 C19.0551463 772.78898839 19.0551463 772.78898839 20 773 C19.9180831 735.99691207 19.8258523 698.99386339 19.71994839 661.99083607 C19.70743076 657.61408949 19.69499779 653.23734267 19.68261719 648.8605957 C19.6789182 647.55369636 19.6789182 647.55369636 19.67514448 646.22039501 C19.63551019 632.14591318 19.60272175 618.07142341 19.57250018 603.99691858 C19.54129518 589.53603445 19.50264772 575.07518375 19.45720994 560.61433727 C19.42944369 551.70404348 19.40735978 542.79377391 19.39273749 533.8834487 C19.3821279 527.75853065 19.36423552 521.63365973 19.34083296 515.50877734 C19.32757527 511.98447172 19.31731993 508.46023161 19.31578636 504.93589973 C19.40577021 477.60125889 19.40577021 477.60125889 14.75 450.75 C14.53384033 449.92411377 14.31768066 449.09822754 14.0949707 448.24731445 C10.9873998 436.79084718 6.44688132 426.21851988 0.53979492 415.9206543 C-1.35224858 412.56261174 -2 410.96811482 -2 407 C-0.61401367 405.77075195 -0.61401367 405.77075195 1.33203125 404.73828125 C2.04311035 404.34608398 2.75418945 403.95388672 3.48681641 403.54980469 C4.25429199 403.14149414 5.02176758 402.73318359 5.8125 402.3125 C13.25694086 398.15623973 19.61074551 393.67573368 26 388 C32.81649485 382 32.81649485 382 35 382 C36.46760392 384.07574423 37.77719889 386.12570488 39.0625 388.3125 C39.45735596 388.98112061 39.85221191 389.64974121 40.2590332 390.33862305 C50.39119034 407.8407159 57.43002732 425.95074516 61.75 445.6875 C62.04825684 447.01044067 62.04825684 447.01044067 62.35253906 448.36010742 C66.6783522 469.4567939 66.28869037 491.15553414 66.23213124 512.58321178 C66.22336403 516.76348679 66.22642612 520.94375706 66.22793579 525.1240387 C66.22897639 532.33897338 66.22278705 539.55387145 66.21146011 546.76879692 C66.19509478 557.19991971 66.18998592 567.63102508 66.18748413 578.06215931 C66.18312418 594.99254003 66.16986161 611.9229013 66.15087891 628.85327148 C66.13247583 645.28393457 66.11834109 661.71459234 66.10986328 678.14526367 C66.10933783 679.16077352 66.10881239 680.17628337 66.10827102 681.22256624 C66.10566064 686.31789398 66.1031333 691.41322176 66.10064721 696.50854957 C66.07996774 738.6723799 66.044789 780.83618883 66 823 C63.9172747 823.00531237 61.83454549 823.00910435 59.7518158 823.01225281 C58.5919966 823.01452724 57.43217741 823.01680166 56.23721218 823.01914501 C49.9834876 822.98216022 43.78678097 822.39181639 37.5625 821.8125 C36.4957756 821.71405289 36.4957756 821.71405289 35.40750122 821.61361694 C-11.12952598 817.24308542 -55.36874426 805.07069207 -98 786 C-98.79116211 785.65259766 -99.58232422 785.30519531 -100.39746094 784.94726562 C-133.23541639 770.49915136 -163.62158899 750.04680601 -191 727 C-192.01022217 726.16041748 -193.02044434 725.32083496 -194.0612793 724.45581055 C-202.57358499 717.32284947 -210.55379626 709.75857877 -218.37915039 701.8815918 C-220.32150484 699.92844512 -222.27442958 697.9863238 -224.22851562 696.04492188 C-231.28025595 689.00060232 -237.83682829 681.84303908 -244 674 C-244.86270556 672.97187672 -245.73111398 671.9484612 -246.609375 670.93359375 C-253.96531099 662.35614284 -260.51813405 653.24707515 -267 644 C-267.43812012 643.37786621 -267.87624023 642.75573242 -268.32763672 642.11474609 C-309.56353363 583.18061813 -333.51667922 512.54584413 -339 441 C-339.11085938 439.72382812 -339.22171875 438.44765625 -339.3359375 437.1328125 C-347.2780493 330.45093241 -311.97107673 224.83119628 -242 140 C-239.80002275 137.50693977 -237.57935268 135.03603522 -235.3359375 132.58203125 C-234.05411249 131.16516447 -232.77886287 129.74184074 -231.53588867 128.29077148 C-226.48061298 122.39828791 -221.062314 116.91386063 -215.5625 111.4375 C-214.65951172 110.53064453 -213.75652344 109.62378906 -212.82617188 108.68945312 C-207.71336107 103.58404682 -202.52027172 98.66157861 -197 94 C-196.37085693 93.46415283 -195.74171387 92.92830566 -195.09350586 92.3762207 C-145.79436271 50.64040496 -67.70326725 0 0 0 Z " fill="#F4F2EF" transform="translate(426,89)"/>
<path d="M0 0 C4.15970921 0.7854278 8.31833865 1.57643724 12.47680664 2.3684082 C13.64674416 2.58924324 14.81668167 2.81007828 16.02207184 3.03760529 C24.64179481 4.68323094 33.03202213 6.65032892 41.4375 9.1875 C42.38775558 9.46971405 42.38775558 9.46971405 43.35720825 9.75762939 C81.67325344 21.15311797 118.72592715 37.7621911 152 60 C152.70979004 60.47179687 153.41958008 60.94359375 154.15087891 61.4296875 C167.34758236 70.23762786 179.81314232 79.84165553 192 90 C192.50504059 90.41962006 193.01008118 90.83924011 193.53042603 91.27157593 C202.26342278 98.55243544 210.51432165 106.19646476 218.5246582 114.26391602 C220.32215805 116.07221608 222.13022316 117.86945977 223.93945312 119.66601562 C230.75419837 126.47303124 237.01646973 133.44414367 243 141 C243.93448138 142.10208104 244.87586641 143.19839885 245.828125 144.28515625 C253.5047168 153.08847362 260.31324311 162.43020054 267 172 C267.43666992 172.62068359 267.87333984 173.24136719 268.32324219 173.88085938 C288.39198756 202.55958988 304.07330913 234.15557916 316 267 C316.37350586 268.02544922 316.74701172 269.05089844 317.13183594 270.10742188 C332.87801106 313.91171358 340.21873034 360.34473026 340.25 406.8125 C340.25067474 407.72463257 340.25134949 408.63676514 340.25204468 409.57653809 C340.18338434 468.64496379 327.99550263 527.38270421 303 581 C302.19089112 582.77841156 301.38229754 584.55705765 300.57421875 586.3359375 C282.98734031 624.61056656 258.33127738 658.9817296 230 690 C229.13246094 690.97195313 228.26492188 691.94390625 227.37109375 692.9453125 C198.15690657 725.45223797 162.20817113 752.02203073 124 773 C123.20658203 773.44118164 122.41316406 773.88236328 121.59570312 774.33691406 C65.29501496 805.48816993 -0.63866848 823 -65 823 C-65 768.22 -65 713.44 -65 657 C-49.82 657 -34.64 657 -19 657 C-19 695.28 -19 733.56 -19 773 C-16.36 772.34 -13.72 771.68 -11 771 C-9.01731056 770.57689506 -7.03167941 770.16727136 -5.04296875 769.7734375 C42.76511444 760.07792037 88.41471448 742.33349969 129 715 C129.72622559 714.51176758 130.45245117 714.02353516 131.20068359 713.52050781 C141.26310441 706.7013466 150.81981318 699.35649364 160.13720703 691.55419922 C161.86016236 690.11667188 163.59751511 688.69907699 165.33984375 687.28515625 C173.07198851 680.92692401 180.21787303 673.99129181 187.3125 666.9375 C188.2317627 666.02750244 189.15102539 665.11750488 190.09814453 664.17993164 C195.41801698 658.8355503 200.33771544 653.31803271 205.05004883 647.43139648 C206.59325105 645.50717576 208.15885043 643.63140912 209.79296875 641.78515625 C234.90654227 613.23024476 254.11091576 578.23398602 268 543 C268.50539307 541.72890381 268.50539307 541.72890381 269.02099609 540.43212891 C281.42388542 508.8767607 288.63574575 475.68619632 292 442 C292.14356934 440.57119507 292.14356934 440.57119507 292.29003906 439.11352539 C293.17913753 429.10638752 293.24336042 419.10177289 293.25 409.0625 C293.25067474 408.13959167 293.25134949 407.21668335 293.25204468 406.26580811 C293.16205609 328.25495211 267.93063888 248.41598633 219.40869141 186.79394531 C217.98939529 184.98649508 216.59252969 183.16347021 215.19921875 181.3359375 C209.93285131 174.47111628 204.3961283 167.97664646 198.48046875 161.6640625 C196.44923951 159.48249031 194.49198434 157.2705312 192.5625 155 C185.36142602 146.70837876 177.36697391 139.09790909 169 132 C168.03191406 131.14277344 167.06382812 130.28554687 166.06640625 129.40234375 C138.68938241 105.26910091 107.24382636 86.52742787 74.125 71.4375 C73.38386963 71.0976709 72.64273926 70.7578418 71.87915039 70.40771484 C66.20983485 67.86230787 60.44622478 65.59292121 54.65185547 63.35180664 C53.81847153 63.02863716 52.98508759 62.70546768 52.12644958 62.37250519 C50.08461359 61.58085592 48.04245773 60.79004347 46 60 C46.00368717 60.82677624 46.00737434 61.65355247 46.01117325 62.50538254 C46.09986295 82.70774517 46.16587332 102.91007383 46.20724869 123.11259079 C46.22779402 132.88274925 46.25575927 142.65277703 46.30175781 152.42285156 C46.34187336 160.94751051 46.367491 169.47207473 46.37635398 177.99682546 C46.3815273 182.5024256 46.39351468 187.00775496 46.42292023 191.51326752 C46.65344445 228.28775283 46.65344445 228.28775283 42 244 C41.78062523 244.74491447 41.56125046 245.48982895 41.33522797 246.25731659 C32.13554591 276.8429809 11.4391866 305.60818216 -17 321 C-17.66 321 -18.32 321 -19 321 C-14.5237674 329.35482107 -9.96221516 336.72080281 -3.58984375 343.79296875 C-3.06519531 344.52128906 -2.54054688 345.24960937 -2 346 C-3.19478334 349.58435001 -4.25867903 350.16528225 -7.25 352.375 C-17.00520164 359.97481993 -25.83048873 368.91054232 -33 379 C-37.05728944 377.44313312 -39.42297385 374.57197248 -42.125 371.3125 C-42.60364502 370.73798096 -43.08229004 370.16346191 -43.57543945 369.5715332 C-58.32659021 351.53263625 -76.36378423 322.83102216 -74.84106445 298.45581055 C-74 296 -74 296 -71.79785156 294.71728516 C-70.8384668 294.41097168 -69.87908203 294.1046582 -68.890625 293.7890625 C-67.83182129 293.43521484 -66.77301758 293.08136719 -65.68212891 292.71679688 C-64.54952637 292.35650391 -63.41692383 291.99621094 -62.25 291.625 C-38.48824322 283.55383293 -21.62461448 271.63398911 -9.93164062 248.92675781 C-8.3230768 245.600032 -6.93939793 242.20224441 -5.625 238.75 C-5.3863623 238.12528809 -5.14772461 237.50057617 -4.90185547 236.85693359 C-1.89739372 228.52568935 -0.70096952 220.23482224 -0.7215271 211.40744019 C-0.7157347 210.49643087 -0.7099423 209.58542155 -0.70397437 208.64680588 C-0.68710035 205.6237126 -0.6841088 202.60077313 -0.68115234 199.57763672 C-0.67184546 197.39884574 -0.66167567 195.2200583 -0.65071106 193.04127502 C-0.62348275 187.14743456 -0.6082829 181.25361791 -0.59528303 175.3597312 C-0.57962109 169.19244001 -0.55284065 163.02519722 -0.5272522 156.85794067 C-0.48051862 145.18873072 -0.44374826 133.51951162 -0.41057932 121.85025609 C-0.37231962 108.56124873 -0.32291955 95.27229615 -0.27259517 81.98332953 C-0.16935593 54.65558912 -0.0800695 27.32781743 0 0 Z " fill="#F4F2EF" transform="translate(576,89)"/>
<path d="M0 0 C0.96909302 0.55929199 0.96909302 0.55929199 1.95776367 1.12988281 C3.7265625 2.20703125 3.7265625 2.20703125 6.375 4.1875 C6.375 5.1775 6.375 6.1675 6.375 7.1875 C4.42020731 9.07815105 2.51764717 10.72001728 0.375 12.375 C-0.56690186 13.10420654 -0.56690186 13.10420654 -1.52783203 13.84814453 C-10.85951294 20.84172734 -21.14092479 25.61432016 -32.1875 29.25 C-32.82993652 29.46640137 -33.47237305 29.68280273 -34.13427734 29.90576172 C-41.77349792 32.22206757 -48.83305492 29.72923424 -56.34375 27.90625 C-82.60630537 22.15349978 -108.21876765 27.85390547 -130.625 42.1875 C-134.11411208 44.69174215 -137.38628277 47.36911545 -140.625 50.1875 C-141.41003906 50.85136719 -142.19507813 51.51523437 -143.00390625 52.19921875 C-154.9399237 62.5642034 -165.18050235 74.55266765 -174.625 87.1875 C-175.27082031 88.04859375 -175.91664063 88.9096875 -176.58203125 89.796875 C-192.93037742 112.38194916 -201.69810982 136.66510167 -197.4375 164.625 C-193.86751743 186.05989532 -185.41235687 206.29357214 -171.625 223.1875 C-171.19993164 223.70892578 -170.77486328 224.23035156 -170.33691406 224.76757812 C-159.91182156 237.30279094 -147.1403128 246.84583843 -132.625 254.1875 C-131.71741943 254.6513208 -131.71741943 254.6513208 -130.79150391 255.12451172 C-113.03185477 264.01595605 -94.02031018 267.27954864 -74.30029297 267.39282227 C-73.21618637 267.40272186 -72.13207977 267.41262146 -71.01512146 267.42282104 C-67.46583163 267.45416756 -63.91652845 267.47908627 -60.3671875 267.50390625 C-57.89282909 267.52449902 -55.41847402 267.54549607 -52.94412231 267.56687927 C-46.45709955 267.62186017 -39.9700463 267.67137445 -33.48297119 267.71972656 C-26.85320331 267.77011755 -20.22347989 267.82571143 -13.59375 267.88085938 C-0.60420284 267.98814729 12.3853819 268.08917524 25.375 268.1875 C25.375 283.3675 25.375 298.5475 25.375 314.1875 C11.24781409 314.23291829 -2.8793223 314.26951178 -17.00656509 314.29112434 C-23.56836946 314.30150402 -30.13012072 314.31555535 -36.69189453 314.33837891 C-43.03968569 314.36031674 -49.38742619 314.37211219 -55.73525238 314.37725449 C-58.14139349 314.38091304 -60.54753224 314.3880556 -62.95365143 314.39896011 C-80.74632517 314.47629414 -98.83507476 314.45207351 -116.1875 310 C-117.04988281 309.78424316 -117.91226563 309.56848633 -118.80078125 309.34619141 C-162.138801 298.0919286 -199.2658064 270.67333198 -222.28125 232.2421875 C-242.42306136 197.75346297 -251.67139957 155.95473494 -241.875 116.6875 C-234.4145919 90.43993283 -220.20039902 67.82595502 -202.625 47.1875 C-201.76071486 46.13884742 -200.89748595 45.08932367 -200.03515625 44.0390625 C-172.24657841 10.50968682 -137.60091084 -16.07545421 -93.06738281 -20.62719727 C-59.96359741 -23.13876995 -28.67031146 -16.75273991 0 0 Z " fill="#F4F2EF" transform="translate(418.625,430.8125)"/>
<path d="M0 0 C10.85577153 8.83609311 20.38659797 18.99231315 29 30 C29.86809712 31.06778613 30.7379688 32.13413139 31.609375 33.19921875 C42.58198379 46.71523802 51.81663964 61.1292256 59 77 C59.28214355 77.62084473 59.56428711 78.24168945 59.85498047 78.88134766 C75.33137337 113.56415391 72.4400483 153.04295198 59.1484375 187.9765625 C50.75653819 209.11203019 38.73012824 227.56511691 23 244 C22.28070312 244.78246094 21.56140625 245.56492187 20.8203125 246.37109375 C-0.18621633 268.4739229 -28.18780763 283.0920556 -57.5625 290.375 C-58.99577637 290.73343994 -58.99577637 290.73343994 -60.45800781 291.09912109 C-75.89636914 294.66320952 -91.62433998 295.30038205 -107.4050293 295.22705078 C-109.15165195 295.22648457 -110.89827508 295.2268073 -112.64489746 295.22793579 C-117.31928638 295.22850213 -121.99356953 295.2168663 -126.66793418 295.20278788 C-131.57791826 295.1901587 -136.48790562 295.18910053 -141.39790344 295.18673706 C-150.66565234 295.18055769 -159.93335321 295.16419561 -169.2010811 295.14403808 C-179.76479642 295.1215678 -190.32851422 295.11065786 -200.89224756 295.10064721 C-222.59486434 295.07982562 -244.29741542 295.04319451 -266 295 C-266 279.82 -266 264.64 -266 249 C-260.75222656 248.98018066 -255.50445312 248.96036133 -250.09765625 248.93994141 C-232.72717608 248.87292881 -215.35675457 248.79538819 -197.98634338 248.71247292 C-187.4583581 248.66247442 -176.9303801 248.61603064 -166.40234375 248.578125 C-157.21992653 248.54505498 -148.03756812 248.50514231 -138.85521603 248.45720994 C-133.99886804 248.43209328 -129.14255831 248.41026928 -124.28616333 248.39665604 C-119.7028326 248.38369969 -115.11963408 248.36150341 -110.53637695 248.33261681 C-108.86605267 248.32364588 -107.19570717 248.31787578 -105.52536011 248.31578636 C-91.82597665 248.29560473 -78.09895048 247.67344989 -64.875 243.75 C-64.12839111 243.53384033 -63.38178223 243.31768066 -62.61254883 243.0949707 C-46.79478635 238.36128632 -32.64362586 230.63887076 -20 220 C-19.21238281 219.34644531 -18.42476562 218.69289063 -17.61328125 218.01953125 C5.36712762 198.21380995 20.46766922 169.35886217 23 139 C24.95150684 107.47354435 11.70626106 82.71306703 -8 59 C-8.48758789 58.40944824 -8.97517578 57.81889648 -9.47753906 57.21044922 C-15.63816217 49.77957385 -22.03291298 42.77648422 -29.015625 36.109375 C-31 34 -31 34 -31 32 C-29.63034374 30.81821695 -28.20049708 29.70603084 -26.75 28.625 C-16.21860092 20.37267314 -7.67287071 10.92802798 0 0 Z " fill="#F4F2EF" transform="translate(759,450)"/>
<path d="M0 0 C2.18893431 0.00028245 4.37786872 0.00012301 6.56680298 -0.0004425 C12.47913534 -0.00072823 18.39144721 0.00513215 24.30377483 0.01213145 C30.49371422 0.01840243 36.68365412 0.01897175 42.87359619 0.02015686 C54.58171985 0.02325916 66.28983412 0.03145767 77.99795365 0.04150635 C91.33292277 0.05270173 104.66789158 0.05818656 118.00286436 0.06320179 C145.42151233 0.07364123 172.84014743 0.09197298 200.25878906 0.11352539 C200.25878906 15.29352539 200.25878906 30.47352539 200.25878906 46.11352539 C190.31262451 46.13539917 190.31262451 46.13539917 180.16552734 46.15771484 C158.2289019 46.20810828 136.29234667 46.27456325 114.35579109 46.3492403 C101.05897352 46.39411537 87.76220148 46.433549 74.46533203 46.45996094 C62.86940393 46.48300829 51.27355959 46.51648115 39.67769802 46.56222695 C33.54359456 46.58606852 27.40957361 46.60485655 21.27542496 46.6111393 C15.48880282 46.61723136 9.70239152 46.63737844 3.91584778 46.6678009 C1.80452316 46.67651555 -0.30682908 46.68031754 -2.41817093 46.67853355 C-31.85566544 46.66153032 -58.44675711 52.18689372 -80.09667969 73.43383789 C-80.969375 74.31813477 -81.84207031 75.20243164 -82.74121094 76.11352539 C-83.47984375 76.85344727 -84.21847656 77.59336914 -84.97949219 78.35571289 C-101.77018584 96.15710849 -109.38629936 120.64145715 -108.95214844 144.76586914 C-108.31853825 162.15885986 -102.62014835 178.25232519 -93.74121094 193.11352539 C-95.37316406 194.0397168 -95.37316406 194.0397168 -97.03808594 194.98461914 C-109.23018547 201.98035985 -120.33572817 209.5955691 -130.74121094 219.11352539 C-134.60455853 215.55817432 -137.26015356 211.98158725 -139.67871094 207.30102539 C-140.18966309 206.32141846 -140.18966309 206.32141846 -140.7109375 205.32202148 C-157.65865656 172.00633195 -160.21278147 133.12604584 -149.24121094 97.51586914 C-143.170753 79.10351396 -133.50899628 62.66654089 -120.74121094 48.11352539 C-119.66419922 46.83735352 -119.66419922 46.83735352 -118.56542969 45.53540039 C-113.17831149 39.29667737 -107.29311424 34.10233176 -100.74121094 29.11352539 C-99.96261719 28.51926758 -99.18402344 27.92500977 -98.38183594 27.31274414 C-68.65905442 5.61910327 -36.07414825 -0.06539349 0 0 Z " fill="#F4F2EF" transform="translate(374.7412109375,228.886474609375)"/>
<path d="M0 0 C14.42585419 4.98003885 28.07294936 12.15445183 39.9765625 21.72265625 C40.48106934 22.12178223 40.98557617 22.5209082 41.50537109 22.93212891 C70.89644374 46.30753713 89.88158885 79.55534771 94.5390625 116.95703125 C98.40665378 153.93402234 88.60009438 191.38152912 65.44384766 220.66064453 C46.74622553 243.64989743 23.31934675 260.06272776 -5.0234375 268.72265625 C-5.67924805 268.92375 -6.33505859 269.12484375 -7.01074219 269.33203125 C-38.6310333 278.74339995 -72.88460235 275.61824586 -103.0234375 262.72265625 C-104.0134375 262.06265625 -105.0034375 261.40265625 -106.0234375 260.72265625 C-99.92191111 246.79456459 -84.91281331 237.52788613 -72.0234375 230.72265625 C-71.20617187 230.25214844 -70.38890625 229.78164063 -69.546875 229.296875 C-64.17885445 226.45670413 -60.01778859 226.6212332 -54.0546875 227.3515625 C-32.4519688 229.99622523 -8.75339471 223.06415471 8.9921875 210.60546875 C11.38634302 208.70591422 13.68854766 206.7479132 15.9765625 204.72265625 C17.430625 203.56443359 17.430625 203.56443359 18.9140625 202.3828125 C34.62284806 189.29712115 44.90555519 167.06348252 47.6953125 147.1328125 C50.03203382 118.80006644 43.56355177 93.67877393 24.9765625 71.72265625 C24.51894531 71.119375 24.06132813 70.51609375 23.58984375 69.89453125 C11.02261788 53.74206076 -11.67119929 43.81058229 -31.3359375 40.47265625 C-42.48415073 39.1033508 -53.81587525 39.06928189 -65.0234375 38.72265625 C-65.0234375 23.87265625 -65.0234375 9.02265625 -65.0234375 -6.27734375 C-49.13686123 -14.22063189 -16.32067995 -5.32473136 0 0 Z " fill="#F4F2EF" transform="translate(688.0234375,236.27734375)"/>
<path d="M0 0 C-1.42547407 4.41333216 -3.80960838 7.42357219 -6.9375 10.75 C-7.42911621 11.27440674 -7.92073242 11.79881348 -8.42724609 12.33911133 C-13.2630912 17.40416901 -18.27111308 21.94839176 -24 26 C-24.836521 26.62213379 -24.836521 26.62213379 -25.68994141 27.25683594 C-36.33263409 34.93760628 -45.55532521 35.6195076 -58.47119141 35.19116211 C-84.30984352 34.35703929 -108.5780971 43.79402269 -127.55029297 61.5546875 C-145.89252651 79.84131979 -155.67020398 104.86773619 -160 130 C-160.16838882 130.9196907 -160.33677765 131.83938141 -160.51026917 132.78694153 C-161.33759336 138.67186698 -161.1785428 144.62395184 -161.20532227 150.55444336 C-161.21491363 151.9249195 -161.22492442 153.29539277 -161.23532104 154.66586304 C-161.26223999 158.36985733 -161.28331955 162.07386419 -161.30332303 165.77790141 C-161.32526332 169.65498158 -161.35261248 173.53202357 -161.37937927 177.40907288 C-161.4291978 184.74346565 -161.47417662 192.07787973 -161.51740164 199.412314 C-161.56686694 207.76542603 -161.62175046 216.11849974 -161.67708123 224.47157466 C-161.79073477 241.64768232 -161.89689455 258.82382529 -162 276 C-177.18 276 -192.36 276 -208 276 C-208.09082551 258.04763975 -208.16428416 240.09548027 -208.20724869 222.14295292 C-208.22774153 213.80444588 -208.25560274 205.46609331 -208.30175781 197.12768555 C-208.34203799 189.84707549 -208.36752881 182.56657746 -208.37635398 175.28585905 C-208.38150031 171.44239013 -208.39330587 167.59924125 -208.42292023 163.75587654 C-208.74279469 120.50374629 -200.51465392 77.66846394 -173 43 C-172.39333496 42.23308838 -172.39333496 42.23308838 -171.77441406 41.45068359 C-148.30503408 12.03890605 -114.09770396 -6.98900152 -76.6262207 -11.48217773 C-50.64182952 -14.04734738 -23.68663526 -11.62798458 0 0 Z " fill="#F4F2EF" transform="translate(719,422)"/>
<path d="M0 0 C15.18 0 30.36 0 46 0 C46.061875 5.218125 46.12375 10.43625 46.1875 15.8125 C46.86171952 43.91519527 54.56802374 67.77719343 75.3984375 87.7265625 C87.58208731 98.37353576 103.87342419 103.83316961 119 109 C119.23444397 115.06796166 118.49419325 120.1634013 116.875 126 C116.6490918 126.82741699 116.42318359 127.65483398 116.19042969 128.50732422 C109.31627639 153.0370491 97.66501047 174.54777872 80 193 C78.99259766 194.10214844 78.99259766 194.10214844 77.96484375 195.2265625 C54.29428158 220.26868995 18.95671741 233.54730621 -15 235 C-15.77859375 235.04125 -16.5571875 235.0825 -17.359375 235.125 C-47.93785409 235.96854425 -78.43958461 225.94799586 -103 208 C-101.47503182 203.79185997 -98.4112016 201.72287502 -94.875 199.25 C-94.25681396 198.81606934 -93.63862793 198.38213867 -93.00170898 197.93505859 C-82.67239372 190.87477578 -67.0145685 180.84718554 -54.03125 182.20605469 C-49.92979255 182.98509128 -45.98146743 184.22602136 -41.99511719 185.44824219 C-18.63855084 191.90759607 6.60326119 186.77688621 27.375 175.125 C33.35319688 171.55440459 38.78604755 167.61052938 44 163 C44.59941406 162.48308594 45.19882812 161.96617187 45.81640625 161.43359375 C53.84431574 154.00172394 60.60958551 143.97821476 65 134 C64.29875 133.74992188 63.5975 133.49984375 62.875 133.2421875 C37.65609857 122.34597737 18.99618597 95.70040977 8.81738281 71.125 C7.26043972 67.07731999 5.95120426 62.95977242 4.6875 58.8125 C4.44491455 58.01755127 4.2023291 57.22260254 3.95239258 56.40356445 C0.20026305 43.45215236 -0.25863529 31.12535488 -0.125 17.75 C-0.063125 8.96375 -0.063125 8.96375 0 0 Z " fill="#F4F2EF" transform="translate(380,276)"/>
</svg>
